<mxfile host="app.diagrams.net" modified="2024-05-20T00:00:00.000Z" agent="5.0 (Windows)">
  <diagram id="fallbackFlow" name="NEF Fallback Control Flow">
    <mxGraphModel dx="1334" dy="771" grid="1" gridSize="10" guides="1" tooltips="1" connect="1" arrows="1" fold="1" page="1" pageScale="1" pageWidth="850" pageHeight="1100" math="0" shadow="0">
      <root>
        <mxCell id="0"/>
        <mxCell id="1" parent="0"/>
        <mxCell id="monitor" value="Monitor QoS &amp; Confidence" style="rounded=1;whiteSpace=wrap;html=1;fillColor=#dae8fc;strokeColor=#6c8ebf;fontSize=13;" vertex="1" parent="1">
          <mxGeometry x="120" y="80" width="220" height="70" as="geometry"/>
        </mxCell>
        <mxCell id="decision" value="Evaluate Fallback Triggers" style="rhombus;whiteSpace=wrap;html=1;strokeColor=#d79b00;fillColor=#ffe6cc;fontSize=13;" vertex="1" parent="1">
          <mxGeometry x="420" y="85" width="200" height="90" as="geometry"/>
        </mxCell>
        <mxCell id="trigger1" value="Policy reversion when fallbacks &gt;5% or priority breach" style="rounded=1;whiteSpace=wrap;html=1;fillColor=#f8cecc;strokeColor=#b85450;fontSize=12;" vertex="1" parent="1">
          <mxGeometry x="720" y="20" width="260" height="100" as="geometry"/>
        </mxCell>
        <mxCell id="trigger2" value="Confidence below ML_CONFIDENCE_THRESHOLD" style="rounded=1;whiteSpace=wrap;html=1;fillColor=#d5e8d4;strokeColor=#82b366;fontSize=12;" vertex="1" parent="1">
          <mxGeometry x="720" y="140" width="260" height="80" as="geometry"/>
        </mxCell>
        <mxCell id="trigger3" value="ML service degraded (circuit breaker / latency alerts)" style="rounded=1;whiteSpace=wrap;html=1;fillColor=#e1d5e7;strokeColor=#9673a6;fontSize=12;" vertex="1" parent="1">
          <mxGeometry x="720" y="240" width="280" height="90" as="geometry"/>
        </mxCell>
        <mxCell id="trigger4" value="TTL expired on recommendation" style="rounded=1;whiteSpace=wrap;html=1;fillColor=#fff2cc;strokeColor=#d6b656;fontSize=12;" vertex="1" parent="1">
          <mxGeometry x="720" y="350" width="240" height="80" as="geometry"/>
        </mxCell>
        <mxCell id="actions" value="Actions\n• Emit handover.fallbacks\n• Switch to deterministic A3\n• Log payload to MLflow" style="rounded=1;whiteSpace=wrap;html=1;fillColor=#ffcccc;strokeColor=#cc0000;fontSize=13;" vertex="1" parent="1">
          <mxGeometry x="1060" y="160" width="260" height="130" as="geometry"/>
        </mxCell>
        <mxCell id="edge1" style="edgeStyle=orthogonalEdgeStyle;rounded=0;orthogonalLoop=1;jettySize=auto;html=1;endArrow=block;endFill=1;strokeColor=#6c8ebf;strokeWidth=2;" edge="1" source="monitor" target="decision" parent="1">
          <mxGeometry relative="1" as="geometry"/>
        </mxCell>
        <mxCell id="edge2" value="Fallback needed" style="edgeStyle=orthogonalEdgeStyle;rounded=0;orthogonalLoop=1;jettySize=auto;html=1;endArrow=open;endFill=0;strokeColor=#d79b00;fontSize=11;" edge="1" source="decision" target="trigger1" parent="1">
          <mxGeometry relative="1" as="geometry">
            <mxPoint x="720" y="70" as="targetPoint"/>
          </mxGeometry>
        </mxCell>
        <mxCell id="edge3" style="edgeStyle=orthogonalEdgeStyle;rounded=0;orthogonalLoop=1;jettySize=auto;html=1;endArrow=open;endFill=0;strokeColor=#d79b00;fontSize=11;" edge="1" source="decision" target="trigger2" parent="1">
          <mxGeometry relative="1" as="geometry">
            <mxPoint x="720" y="180" as="targetPoint"/>
          </mxGeometry>
        </mxCell>
        <mxCell id="edge4" style="edgeStyle=orthogonalEdgeStyle;rounded=0;orthogonalLoop=1;jettySize=auto;html=1;endArrow=open;endFill=0;strokeColor=#d79b00;fontSize=11;" edge="1" source="decision" target="trigger3" parent="1">
          <mxGeometry relative="1" as="geometry">
            <mxPoint x="720" y="280" as="targetPoint"/>
          </mxGeometry>
        </mxCell>
        <mxCell id="edge5" style="edgeStyle=orthogonalEdgeStyle;rounded=0;orthogonalLoop=1;jettySize=auto;html=1;endArrow=open;endFill=0;strokeColor=#d79b00;fontSize=11;" edge="1" source="decision" target="trigger4" parent="1">
          <mxGeometry relative="1" as="geometry">
            <mxPoint x="720" y="390" as="targetPoint"/>
          </mxGeometry>
        </mxCell>
        <mxCell id="edge6" style="edgeStyle=orthogonalEdgeStyle;rounded=0;orthogonalLoop=1;jettySize=auto;html=1;endArrow=block;endFill=1;strokeColor=#cc0000;strokeWidth=2;" edge="1" source="trigger1" target="actions" parent="1">
          <mxGeometry relative="1" as="geometry"/>
        </mxCell>
        <mxCell id="edge7" style="edgeStyle=orthogonalEdgeStyle;rounded=0;orthogonalLoop=1;jettySize=auto;html=1;endArrow=block;endFill=1;strokeColor=#cc0000;strokeWidth=2;" edge="1" source="trigger2" target="actions" parent="1">
          <mxGeometry relative="1" as="geometry"/>
        </mxCell>
        <mxCell id="edge8" style="edgeStyle=orthogonalEdgeStyle;rounded=0;orthogonalLoop=1;jettySize=auto;html=1;endArrow=block;endFill=1;strokeColor=#cc0000;strokeWidth=2;" edge="1" source="trigger3" target="actions" parent="1">
          <mxGeometry relative="1" as="geometry"/>
        </mxCell>
        <mxCell id="edge9" style="edgeStyle=orthogonalEdgeStyle;rounded=0;orthogonalLoop=1;jettySize=auto;html=1;endArrow=block;endFill=1;strokeColor=#cc0000;strokeWidth=2;" edge="1" source="trigger4" target="actions" parent="1">
          <mxGeometry relative="1" as="geometry"/>
        </mxCell>
        <mxCell id="edgeReturn" value="No fallback" style="edgeStyle=orthogonalEdgeStyle;rounded=0;orthogonalLoop=1;jettySize=auto;html=1;endArrow=block;endFill=1;strokeColor=#82b366;strokeWidth=2;" edge="1" source="decision" parent="1">
          <mxGeometry relative="1" as="geometry">
            <mxPoint x="420" y="220" as="sourcePoint"/>
            <mxPoint x="220" y="220" as="targetPoint"/>
          </mxGeometry>
        </mxCell>
        <mxCell id="labelReturn" value="Continue ML-assisted handover" style="text;html=1;resizable=0;points=[];align=center;fontSize=12;fontColor=#82b366;" vertex="1" parent="1">
          <mxGeometry x="220" y="200" width="200" height="30" as="geometry"/>
        </mxCell>
      </root>
    </mxGraphModel>
  </diagram>
</mxfile>
